<svg xmlns="http://www.w3.org/2000/svg" version="1.1" xmlns:xlink="http://www.w3.org/1999/xlink" width="512" height="512" x="0" y="0" viewBox="0 0 500 500" style="enable-background:new 0 0 512 512" xml:space="preserve" class=""><g><path fill="#45c9a5" d="M439.503 143.281c10.469-21.862 8.985-48.347-8.985-66.317l-7.481-7.481c-17.97-17.97-45.168-20.829-66.317-8.985-14.885 8.336-46.385-8.997-48.717-20.224C303.106 16.696 280.352 0 255.105 0L242.25.653c-29.562 1.502-52.76 25.909-52.76 55.509C190.5 69 168.5 78.5 155.721 70.148c-21.932-21.932-57.491-21.932-79.423 0l-6.151 6.151C51.34 95.107 49.155 123.638 62.112 145.6c8.888 15.066.221 41.733-14.381 45.323C21.161 197.456 0 217 0 245.798v9.297c0 25.504 18.578 44.533 41.688 52.731 23.978 8.506 22.087 43.679 19.629 47.894-12.541 21.502-9.598 49.552 8.831 67.981l6.151 6.151c18.336 18.336 45.721 20.473 67.658 9.018 15.71-8.204 45.044 7.13 47.477 19.666C196.149 482.829 219.721 500 245.653 500h8.002c25.422 0 46.947-16.684 54.222-39.701 4.758-15.052 27.791-30.299 50.703-20.66 21.797 9.17 48.645 6.689 65.679-10.344l5.594-5.594c21.932-21.932 21.932-57.491 0-79.422-9.852-8.945 2.815-33.612 13.986-33.769 31.018 0 56.162-25.145 56.162-56.162v-9.615c0-25.827-17.145-48.863-41.275-54.166C442.5 187 434.25 154.25 439.503 143.281z" opacity="1" data-original="#45c9a5" class=""></path><path fill="#ffffff" d="m206.255 326.33-65.171-65.171c-7.811-7.811-7.811-20.474 0-28.284 7.811-7.811 20.474-7.811 28.284 0l51.029 51.029L330.631 173.67c7.811-7.811 20.474-7.811 28.284 0s7.811 20.474 0 28.284L234.54 326.33c-8.207 7.003-22.873 6.003-28.285 0z" opacity="1" data-original="#ffffff" class=""></path></g></svg>